<?xml version="1.0" standalone="no"?>
<!DOCTYPE svg PUBLIC "-//W3C//DTD SVG 20010904//EN"
 "http://www.w3.org/TR/2001/REC-SVG-20010904/DTD/svg10.dtd">
<svg version="1.0" xmlns="http://www.w3.org/2000/svg"
 width="960.000000pt" height="960.000000pt" viewBox="0 0 960.000000 317.000000"
 preserveAspectRatio="xMidYMid meet">
<metadata>
Created by potrace 1.15, written by Peter Selinger 2001-2017
</metadata>
<g transform="translate(0.000000,317.000000) scale(0.100000,-0.100000)"
fill="#000000" stroke="none">
<path d="M3770 2434 c-178 -26 -291 -93 -372 -218 -113 -175 -112 -433 3 -605
50 -75 94 -112 184 -156 241 -117 550 -23 664 203 17 34 38 88 46 119 18 68
20 201 4 275 -37 175 -166 316 -329 361 -59 17 -159 27 -200 21z m156 -212
c54 -28 88 -67 121 -137 25 -53 28 -71 28 -160 0 -117 -20 -184 -73 -246 -53
-62 -103 -83 -192 -84 -64 0 -82 4 -122 28 -96 56 -143 163 -136 310 5 111 34
184 98 246 73 71 188 88 276 43z"/>
<path d="M1722 2028 l3 -363 28 -61 c70 -151 231 -234 428 -221 144 9 261 67
326 161 60 87 63 112 63 498 l0 348 -110 0 -110 0 0 -310 c0 -345 -6 -393 -53
-447 -40 -46 -82 -63 -152 -63 -79 0 -139 33 -174 95 -14 26 -17 80 -21 375
l-5 345 -113 3 -113 3 3 -363z"/>
<path d="M2570 1147 c-37 -13 -80 -67 -80 -101 0 -41 40 -87 120 -138 44 -28
80 -57 80 -64 0 -8 -12 -21 -26 -30 -21 -14 -33 -15 -67 -7 -23 6 -49 13 -58
17 -13 5 -19 -1 -28 -25 -6 -18 -11 -35 -11 -39 0 -13 77 -30 134 -30 93 0
148 40 150 109 1 53 -23 83 -108 135 -39 24 -74 50 -80 58 -24 38 45 62 108
38 23 -8 28 -6 41 21 20 38 16 44 -39 58 -56 14 -91 13 -136 -2z"/>
<path d="M2955 1145 c-134 -48 -179 -241 -82 -352 41 -47 82 -63 159 -63 134
1 222 106 203 244 -8 62 -25 95 -69 134 -58 50 -135 64 -211 37z m138 -85 c56
-44 63 -167 12 -220 -34 -35 -67 -44 -111 -30 -93 31 -102 207 -12 256 34 19
82 17 111 -6z"/>
<path d="M4777 1145 c-83 -29 -131 -104 -131 -205 0 -133 75 -210 204 -210 41
0 74 6 100 20 99 51 138 184 86 296 -45 96 -152 138 -259 99z m131 -81 c33
-23 52 -67 52 -124 0 -66 -22 -108 -67 -126 -73 -31 -142 17 -151 105 -5 61
10 102 50 136 34 29 83 33 116 9z"/>
<path d="M5644 1146 c-41 -18 -74 -62 -74 -98 0 -44 26 -80 84 -118 109 -72
117 -80 106 -100 -14 -26 -58 -33 -113 -16 -48 14 -48 14 -58 -11 -5 -14 -12
-30 -15 -35 -10 -16 64 -38 127 -38 73 0 124 22 144 61 37 70 7 123 -105 190
-75 45 -87 60 -63 85 16 16 74 16 114 0 12 -5 20 1 29 23 15 37 9 48 -38 61
-50 13 -100 12 -138 -4z"/>
<path d="M3312 943 l3 -208 129 -3 c72 -1 135 -1 142 2 8 3 9 16 5 38 l-7 33
-92 3 -92 3 0 169 0 170 -45 0 -45 0 2 -207z"/>
<path d="M3652 993 c3 -179 12 -205 78 -242 53 -29 148 -29 201 1 66 37 79 78
79 251 l0 147 -50 0 -50 0 0 -149 c0 -131 -2 -152 -19 -172 -14 -18 -29 -24
-60 -24 -70 0 -75 13 -81 188 l-5 152 -48 3 -49 3 4 -158z"/>
<path d="M4060 1115 l0 -35 60 0 60 0 2 -172 3 -173 45 0 45 0 3 173 2 172 66
0 65 0 -3 33 -3 32 -172 3 -173 2 0 -35z"/>
<path d="M4474 1137 c-2 -7 -3 -100 -2 -207 l3 -195 45 0 45 0 3 208 2 207
-45 0 c-28 0 -48 -5 -51 -13z"/>
<path d="M5134 1137 c-2 -7 -3 -100 -2 -207 l3 -195 45 0 45 0 5 120 5 120 85
-120 c84 -119 86 -120 128 -123 l42 -3 0 210 0 211 -45 0 -44 0 -3 -122 -3
-123 -85 122 -85 123 -43 0 c-25 0 -45 -5 -48 -13z"/>
<path d="M6064 1137 c-2 -7 -3 -100 -2 -207 l3 -195 45 0 45 0 3 208 2 207
-45 0 c-28 0 -48 -5 -51 -13z"/>
<path d="M6260 940 l0 -210 45 0 45 0 0 120 c0 66 3 120 8 120 4 -1 45 -55 91
-121 l85 -120 40 3 41 3 3 208 2 207 -45 0 -45 0 0 -120 c0 -66 -3 -120 -7
-120 -5 1 -45 55 -91 120 l-83 120 -45 0 -44 0 0 -210z"/>
<path d="M6805 1133 c-44 -23 -65 -44 -85 -83 -59 -116 -13 -269 93 -309 37
-14 135 -14 175 0 l31 11 -17 34 c-15 32 -19 34 -47 27 -78 -19 -124 0 -151
64 -42 99 25 213 116 198 19 -3 42 -8 51 -11 14 -4 39 31 39 55 0 30 -155 41
-205 14z"/>
</g>
</svg>
